<svg width="96" height="96" xmlns="http://www.w3.org/2000/svg" xmlns:xlink="http://www.w3.org/1999/xlink" xml:space="preserve" overflow="hidden"><defs><clipPath id="clip0"><rect x="528" y="385" width="96" height="96"/></clipPath></defs><g clip-path="url(#clip0)" transform="translate(-528 -385)"><path d="M576 401C556.127 401.022 540.022 417.127 540 437L540 456C540 456.552 540.448 457 541 457 541.552 457 542 456.552 542 456L542 453 548 453 548 463C548 465.209 549.791 467 552 467L558 467C560.209 467 562 465.209 562 463L562 441C562 438.791 560.209 437 558 437L552 437C549.791 437 548 438.791 548 441L548 451 542 451 542 437C542 418.222 557.222 403 576 403 594.778 403 610 418.222 610 437L610 451 604 451 604 441C604 438.791 602.209 437 600 437L594 437C591.791 437 590 438.791 590 441L590 463C590 465.209 591.791 467 594 467L600 467C602.209 467 604 465.209 604 463L604 453 610 453 610 456C610 456.552 610.448 457 611 457 611.552 457 612 456.552 612 456L612 437C611.978 417.127 595.873 401.022 576 401ZM550 441C550 439.895 550.895 439 552 439L558 439C559.105 439 560 439.895 560 441L560 463C560 464.105 559.105 465 558 465L552 465C550.895 465 550 464.105 550 463ZM602 463C602 464.105 601.105 465 600 465L594 465C592.895 465 592 464.105 592 463L592 441C592 439.895 592.895 439 594 439L600 439C601.105 439 602 439.895 602 441Z" fill="#FFFFFF"/></g></svg>