<svg width="96" height="96" xmlns="http://www.w3.org/2000/svg" xmlns:xlink="http://www.w3.org/1999/xlink" xml:space="preserve" overflow="hidden"><defs><clipPath id="clip0"><rect x="732" y="212" width="96" height="96"/></clipPath></defs><g clip-path="url(#clip0)" transform="translate(-732 -212)"><path d="M783.32 241.461C784.693 244.143 786.418 246.629 788.45 248.853 792.301 253.429 796.281 258.161 796.281 268.859 796.286 268.893 796.292 268.926 796.301 268.959 796.307 269.027 796.321 269.094 796.341 269.159 796.379 269.278 796.439 269.389 796.518 269.486 796.562 269.538 796.611 269.586 796.664 269.629 796.691 269.65 796.706 269.68 796.735 269.699 796.767 269.717 796.801 269.732 796.835 269.746 796.867 269.763 796.901 269.778 796.935 269.791 797.045 269.835 797.161 269.858 797.279 269.861L797.279 269.861C797.398 269.858 797.515 269.834 797.625 269.791 797.648 269.782 797.67 269.775 797.692 269.765 797.795 269.719 797.889 269.656 797.97 269.578 797.985 269.564 797.995 269.547 798.009 269.532 798.048 269.493 798.083 269.452 798.115 269.407 798.263 269.181 801.715 263.777 800.863 255.317 800.082 247.5 796 242.89 792.048 238.433 787.948 233.813 784.083 229.448 783.336 221.577 783.325 221.528 783.311 221.481 783.293 221.434 783.281 221.368 783.262 221.304 783.236 221.243 783.205 221.185 783.168 221.13 783.126 221.08 783.093 221.03 783.055 220.983 783.012 220.94 782.91 220.864 782.8 220.797 782.686 220.74 782.625 220.721 782.563 220.707 782.5 220.7 782.45 220.685 782.399 220.674 782.347 220.668L782.347 220.668C782.33 220.668 782.316 220.677 782.3 220.678 782.284 220.679 782.269 220.671 782.252 220.678 782.202 220.689 782.153 220.703 782.106 220.722 781.976 220.741 781.854 220.798 781.757 220.887 781.61 221.005 781.493 221.157 781.417 221.329 781.398 221.392 781.384 221.457 781.377 221.523 781.363 221.572 781.353 221.622 781.347 221.672L781.287 280.032C779.838 278.566 777.962 277.598 775.928 277.264 772.475 276.687 768.928 277.145 765.734 278.58 762.489 279.896 759.705 282.143 757.734 285.037 755.922 287.859 755.515 290.798 756.589 293.312 758.004 296.622 761.764 298.452 766.215 298.451 768.742 298.428 771.238 297.897 773.555 296.889 776.8 295.573 779.583 293.326 781.555 290.432 782.645 288.832 783.244 286.949 783.28 285.014ZM779.865 289.349C778.111 291.907 775.641 293.89 772.765 295.049 766.58 297.69 760.146 296.559 758.424 292.524 757.618 290.639 757.969 288.363 759.412 286.116 761.166 283.559 763.636 281.576 766.512 280.416 768.591 279.508 770.831 279.026 773.1 279 773.918 278.998 774.735 279.074 775.539 279.228 778.161 279.739 780.048 281.058 780.853 282.943L780.853 282.943C781.658 284.826 781.308 287.1 779.865 289.349ZM789.98 247.565C786.63 243.582 783.461 239.816 783.344 232.425 783.344 232.285 783.331 231.966 783.33 231.947L783.33 229.575C783.33 229.551 783.338 229.549 783.348 229.575 785.161 233.675 787.881 236.755 790.548 239.764 794.459 244.176 798.153 248.344 798.874 255.519 799.188 258.532 798.908 261.577 798.051 264.482 798.044 264.506 798.036 264.504 798.033 264.482 797.067 256.005 793.334 251.551 789.98 247.565Z" fill="#FFFFFF"/></g></svg>